<?xml version="1.0" encoding="UTF-8"?>
<svg version="1.1" xmlns="http://www.w3.org/2000/svg" width="96" height="256">
<path d="M0 0 C2.4375 1.25 2.4375 1.25 4.4375 4.25 C4.703125 6.44140625 4.703125 6.44140625 4.6875 8.8125 C4.69265625 9.59753906 4.6978125 10.38257813 4.703125 11.19140625 C4.4375 13.25 4.4375 13.25 2.4375 15.25 C2.27062552 17.83354218 2.27062552 17.83354218 2.4375 20.25 C-0.5325 20.25 -3.5025 20.25 -6.5625 20.25 C-6.52125 19.5075 -6.48 18.765 -6.4375 18 C-6.35652705 15.30706635 -6.35652705 15.30706635 -7.5625 13.4375 C-9.16757366 9.92640136 -8.86780562 7.09685083 -8.5625 3.25 C-6.36346358 0.00380337 -3.86496647 -1.1312097 0 0 Z " fill="#532B17" transform="translate(18.5625,137.75)"/>
<path d="M0 0 C2.4375 1.25 2.4375 1.25 4.4375 4.25 C4.703125 6.44140625 4.703125 6.44140625 4.6875 8.8125 C4.69265625 9.59753906 4.6978125 10.38257813 4.703125 11.19140625 C4.4375 13.25 4.4375 13.25 2.4375 15.25 C2.27062552 17.83354218 2.27062552 17.83354218 2.4375 20.25 C-0.5325 20.25 -3.5025 20.25 -6.5625 20.25 C-6.52125 19.5075 -6.48 18.765 -6.4375 18 C-6.35652705 15.30706635 -6.35652705 15.30706635 -7.5625 13.4375 C-9.16757366 9.92640136 -8.86780562 7.09685083 -8.5625 3.25 C-6.36346358 0.00380337 -3.86496647 -1.1312097 0 0 Z " fill="#FD5A78" transform="translate(82.5625,137.75)"/>
<path d="M0 0 C2.4375 1.25 2.4375 1.25 4.4375 4.25 C4.703125 6.44140625 4.703125 6.44140625 4.6875 8.8125 C4.69265625 9.59753906 4.6978125 10.38257813 4.703125 11.19140625 C4.4375 13.25 4.4375 13.25 2.4375 15.25 C2.27062552 17.83354218 2.27062552 17.83354218 2.4375 20.25 C-0.5325 20.25 -3.5025 20.25 -6.5625 20.25 C-6.52125 19.5075 -6.48 18.765 -6.4375 18 C-6.35652705 15.30706635 -6.35652705 15.30706635 -7.5625 13.4375 C-9.16757366 9.92640136 -8.86780562 7.09685083 -8.5625 3.25 C-6.36346358 0.00380337 -3.86496647 -1.1312097 0 0 Z " fill="#FFFFFF" transform="translate(50.5625,137.75)"/>
<path d="M0 0 C2.4375 1.25 2.4375 1.25 4.4375 4.25 C4.0625 7.25 4.0625 7.25 3.4375 10.25 C3.4375 11.24 3.4375 12.23 3.4375 13.25 C3.12080179 15.58564933 2.78929197 17.9193782 2.4375 20.25 C-0.5325 20.25 -3.5025 20.25 -6.5625 20.25 C-7.5625 13.625 -7.5625 13.625 -7.5625 10.25 C-7.789375 9.095 -8.01625 7.94 -8.25 6.75 C-8.5625 3.25 -8.5625 3.25 -7.3125 1.375 C-4.59119547 -0.37441005 -3.14360268 -0.92007883 0 0 Z " fill="#73281A" transform="translate(18.5625,201.75)"/>
<path d="M0 0 C2.4375 1.25 2.4375 1.25 4.4375 4.25 C4.0625 7.25 4.0625 7.25 3.4375 10.25 C3.4375 11.24 3.4375 12.23 3.4375 13.25 C3.12080179 15.58564933 2.78929197 17.9193782 2.4375 20.25 C-0.5325 20.25 -3.5025 20.25 -6.5625 20.25 C-7.5625 13.625 -7.5625 13.625 -7.5625 10.25 C-7.789375 9.095 -8.01625 7.94 -8.25 6.75 C-8.5625 3.25 -8.5625 3.25 -7.3125 1.375 C-4.59119547 -0.37441005 -3.14360268 -0.92007883 0 0 Z " fill="#FD5A78" transform="translate(82.5625,201.75)"/>
<path d="M0 0 C2.4375 1.25 2.4375 1.25 4.4375 4.25 C4.0625 7.25 4.0625 7.25 3.4375 10.25 C3.4375 11.24 3.4375 12.23 3.4375 13.25 C3.12080179 15.58564933 2.78929197 17.9193782 2.4375 20.25 C-0.5325 20.25 -3.5025 20.25 -6.5625 20.25 C-7.5625 13.625 -7.5625 13.625 -7.5625 10.25 C-7.789375 9.095 -8.01625 7.94 -8.25 6.75 C-8.5625 3.25 -8.5625 3.25 -7.3125 1.375 C-4.59119547 -0.37441005 -3.14360268 -0.92007883 0 0 Z " fill="#FFFFFF" transform="translate(50.5625,201.75)"/>
<path d="M0 0 C2.4375 1.25 2.4375 1.25 4.4375 4.25 C4.0625 7.25 4.0625 7.25 3.4375 10.25 C3.4375 11.24 3.4375 12.23 3.4375 13.25 C3.12080179 15.58564933 2.78929197 17.9193782 2.4375 20.25 C-0.5325 20.25 -3.5025 20.25 -6.5625 20.25 C-7.5625 13.625 -7.5625 13.625 -7.5625 10.25 C-7.789375 9.095 -8.01625 7.94 -8.25 6.75 C-8.5625 3.25 -8.5625 3.25 -7.3125 1.375 C-4.59119547 -0.37441005 -3.14360268 -0.92007883 0 0 Z " fill="#73281A" transform="translate(50.5625,73.75)"/>
<path d="M0 0 C2.4375 1.25 2.4375 1.25 4.4375 4.25 C4.0625 7.25 4.0625 7.25 3.4375 10.25 C3.4375 11.24 3.4375 12.23 3.4375 13.25 C3.12080179 15.58564933 2.78929197 17.9193782 2.4375 20.25 C-0.5325 20.25 -3.5025 20.25 -6.5625 20.25 C-7.5625 13.625 -7.5625 13.625 -7.5625 10.25 C-7.789375 9.095 -8.01625 7.94 -8.25 6.75 C-8.5625 3.25 -8.5625 3.25 -7.3125 1.375 C-4.59119547 -0.37441005 -3.14360268 -0.92007883 0 0 Z " fill="#923327" transform="translate(50.5625,9.75)"/>
<path d="M0 0 C2.4375 1.25 2.4375 1.25 4.4375 4.25 C4.18188677 6.5931213 3.84479228 8.92843403 3.4375 11.25 C3.4375 12.57 3.4375 13.89 3.4375 15.25 C3.1075 15.91 2.7775 16.57 2.4375 17.25 C1.1175 17.25 -0.2025 17.25 -1.5625 17.25 C-1.8925 17.91 -2.2225 18.57 -2.5625 19.25 C-3.8825 19.25 -5.2025 19.25 -6.5625 19.25 C-6.5625 18.59 -6.5625 17.93 -6.5625 17.25 C-7.5525 16.92 -8.5425 16.59 -9.5625 16.25 C-9.211875 15.404375 -8.86125 14.55875 -8.5 13.6875 C-7.30937176 10.23726399 -7.30937176 10.23726399 -8.125 6.5625 C-8.5625 3.25 -8.5625 3.25 -7.3125 1.375 C-4.59119547 -0.37441005 -3.14360268 -0.92007883 0 0 Z " fill="#9F4536" transform="translate(18.5625,10.75)"/>
<path d="M0 0 C2.3125 1.3125 2.3125 1.3125 4.3125 3.3125 C4.12074568 5.29396126 3.92277615 7.27755516 3.6015625 9.2421875 C3.22031248 11.62436284 3.22031248 11.62436284 3.3125 15.3125 C2.3125 17.5625 2.3125 17.5625 1.3125 19.3125 C-2 19.5625 -2 19.5625 -5.6875 19.3125 C-7.625 17.3125 -7.625 17.3125 -8.6875 15.3125 C-8.0275 13.9925 -7.3675 12.6725 -6.6875 11.3125 C-7.3475 10.3225 -8.0075 9.3325 -8.6875 8.3125 C-8.625 5.3125 -8.625 5.3125 -7.6875 2.3125 C-4.8724359 -0.1897792 -3.70259251 -0.94717483 0 0 Z " fill="#5D3019" transform="translate(17.6875,106.6875)"/>
<path d="M0 0 C2.8125 1.4375 2.8125 1.4375 4.8125 4.4375 C4.4375 7.5 4.4375 7.5 3.8125 10.4375 C3.8125 11.0975 3.8125 11.7575 3.8125 12.4375 C3.8125 16.4375 3.8125 16.4375 1.8125 19.4375 C-1.625 19.9375 -1.625 19.9375 -5.1875 19.4375 C-7.1875 17.1875 -7.1875 17.1875 -8.1875 14.4375 C-7.8125 12.5625 -7.8125 12.5625 -7.1875 10.4375 C-7.435 9.2825 -7.6825 8.1275 -7.9375 6.9375 C-8.1875 3.4375 -8.1875 3.4375 -6.125 0.875 C-3.1875 -0.5625 -3.1875 -0.5625 0 0 Z " fill="#572B14" transform="translate(18.1875,42.5625)"/>
<path d="M0 0 C2.4375 1.25 2.4375 1.25 4.4375 4.25 C4.18066188 6.27260018 3.92020773 8.29542762 3.59765625 10.30859375 C3.39321496 12.78682105 4.01169934 14.23710495 5.4375 16.25 C4.4475 16.58 3.4575 16.91 2.4375 17.25 C2.4375 17.91 2.4375 18.57 2.4375 19.25 C1.1175 19.25 -0.2025 19.25 -1.5625 19.25 C-1.8925 18.59 -2.2225 17.93 -2.5625 17.25 C-3.8825 17.25 -5.2025 17.25 -6.5625 17.25 C-7.625 14.875 -7.625 14.875 -8.5625 12.25 C-8.2325 11.59 -7.9025 10.93 -7.5625 10.25 C-7.76875 9.115625 -7.975 7.98125 -8.1875 6.8125 C-8.5625 3.25 -8.5625 3.25 -7.3125 1.375 C-4.59119547 -0.37441005 -3.14360268 -0.92007883 0 0 Z " fill="#9D4630" transform="translate(82.5625,10.75)"/>
<path d="M0 0 C2.5 1.1875 2.5 1.1875 4.5 3.1875 C4.24889902 5.53110915 3.91434251 7.86718195 3.5 10.1875 C3.39459074 12.39831851 3.39459074 12.39831851 4.5 15.1875 C3.4375 17.375 3.4375 17.375 1.5 19.1875 C-1.4375 19.8125 -1.4375 19.8125 -4.5 19.1875 C-6.9375 16.4375 -6.9375 16.4375 -8.5 13.1875 C-8.1875 11.125 -8.1875 11.125 -7.5 9.1875 C-7.726875 8.3625 -7.95375 7.5375 -8.1875 6.6875 C-8.290625 5.8625 -8.39375 5.0375 -8.5 4.1875 C-4.06301596 -1.32048019 -4.06301596 -1.32048019 0 0 Z " fill="#5D3019" transform="translate(81.5,106.8125)"/>
<path d="M0 0 C2.8125 1.4375 2.8125 1.4375 4.8125 4.4375 C4.7890625 6.375 4.7890625 6.375 4.4375 8.4375 C4.0419868 10.86576709 3.8125 12.95633201 3.8125 15.4375 C2.6875 17.625 2.6875 17.625 0.8125 19.4375 C-2.1875 19.9375 -2.1875 19.9375 -5.1875 19.4375 C-7.0625 17.4375 -7.0625 17.4375 -8.1875 15.4375 C-7.5275 14.1175 -6.8675 12.7975 -6.1875 11.4375 C-6.8475 10.4475 -7.5075 9.4575 -8.1875 8.4375 C-8.625 6 -8.625 6 -8.1875 3.4375 C-5.3837076 0.22138519 -4.28438557 -0.75606804 0 0 Z " fill="#572B14" transform="translate(82.1875,42.5625)"/>
<path d="M0 0 C2.4375 1.25 2.4375 1.25 4.4375 4.25 C4.44921875 6.37109375 4.44921875 6.37109375 4.125 8.6875 C4.02574219 9.44933594 3.92648438 10.21117188 3.82421875 10.99609375 C3.46036132 13.11675775 2.99139462 15.17171163 2.4375 17.25 C1.1175 17.25 -0.2025 17.25 -1.5625 17.25 C-1.8925 17.91 -2.2225 18.57 -2.5625 19.25 C-3.8825 19.25 -5.2025 19.25 -6.5625 19.25 C-8.6875 13.625 -8.6875 13.625 -7.5625 10.25 C-7.76875 9.095 -7.975 7.94 -8.1875 6.75 C-8.5625 3.25 -8.5625 3.25 -7.3125 1.375 C-4.59119547 -0.37441005 -3.14360268 -0.92007883 0 0 Z " fill="#5F281D" transform="translate(18.5625,74.75)"/>
<path d="M0 0 C2.4375 1.25 2.4375 1.25 4.4375 4.25 C4.24765864 6.24333432 4.05389566 8.23942621 3.7265625 10.21484375 C3.34375121 12.5674451 3.34375121 12.5674451 3.4375 16.25 C3.1075 17.24 2.7775 18.23 2.4375 19.25 C1.1175 19.25 -0.2025 19.25 -1.5625 19.25 C-1.8925 18.59 -2.2225 17.93 -2.5625 17.25 C-3.8825 17.25 -5.2025 17.25 -6.5625 17.25 C-9.09502499 6.87116992 -9.09502499 6.87116992 -8.5625 3.25 C-6.20230702 0.10307603 -3.9205654 -1.14748256 0 0 Z " fill="#5D2E15" transform="translate(82.5625,74.75)"/>
<path d="M0 0 C2.3125 1.3125 2.3125 1.3125 4.3125 3.3125 C4.01153201 7.45080989 3.63351984 9.83097024 1.3125 13.3125 C0.91862212 15.63637947 0.57763915 17.97043749 0.3125 20.3125 C-1.3375 20.3125 -2.9875 20.3125 -4.6875 20.3125 C-4.790625 19.075 -4.89375 17.8375 -5 16.5625 C-5.3386393 13.68153879 -5.51424631 12.53906251 -7.3125 10.1875 C-8.6875 8.3125 -8.6875 8.3125 -8.6875 5.25 C-7.6875 2.3125 -7.6875 2.3125 -5.4375 0.3125 C-2.6875 -0.6875 -2.6875 -0.6875 0 0 Z " fill="#5D3019" transform="translate(17.6875,233.6875)"/>
<path d="M0 0 C2.3125 1.3125 2.3125 1.3125 4.3125 3.3125 C4.01153201 7.45080989 3.63351984 9.83097024 1.3125 13.3125 C0.91862212 15.63637947 0.57763915 17.97043749 0.3125 20.3125 C-1.3375 20.3125 -2.9875 20.3125 -4.6875 20.3125 C-4.790625 19.075 -4.89375 17.8375 -5 16.5625 C-5.3386393 13.68153879 -5.51424631 12.53906251 -7.3125 10.1875 C-8.6875 8.3125 -8.6875 8.3125 -8.6875 5.25 C-7.6875 2.3125 -7.6875 2.3125 -5.4375 0.3125 C-2.6875 -0.6875 -2.6875 -0.6875 0 0 Z " fill="#FD5A78" transform="translate(81.6875,233.6875)"/>
<path d="M0 0 C2.3125 1.3125 2.3125 1.3125 4.3125 3.3125 C4.01153201 7.45080989 3.63351984 9.83097024 1.3125 13.3125 C0.91862212 15.63637947 0.57763915 17.97043749 0.3125 20.3125 C-1.3375 20.3125 -2.9875 20.3125 -4.6875 20.3125 C-4.790625 19.075 -4.89375 17.8375 -5 16.5625 C-5.3386393 13.68153879 -5.51424631 12.53906251 -7.3125 10.1875 C-8.6875 8.3125 -8.6875 8.3125 -8.6875 5.25 C-7.6875 2.3125 -7.6875 2.3125 -5.4375 0.3125 C-2.6875 -0.6875 -2.6875 -0.6875 0 0 Z " fill="#FFFFFF" transform="translate(49.6875,233.6875)"/>
<path d="M0 0 C2.8125 1.4375 2.8125 1.4375 4.8125 4.4375 C4.48495695 8.28613079 3.51408847 11.03432306 1.8125 14.4375 C1.42959538 16.42860401 1.08645385 18.42850513 0.8125 20.4375 C-0.8375 20.4375 -2.4875 20.4375 -4.1875 20.4375 C-4.290625 19.2 -4.39375 17.9625 -4.5 16.6875 C-4.935448 13.04382481 -5.90226237 11.31888658 -8.1875 8.4375 C-8.6875 5.9375 -8.6875 5.9375 -8.1875 3.4375 C-5.3837076 0.22138519 -4.28438557 -0.75606804 0 0 Z " fill="#572B14" transform="translate(18.1875,169.5625)"/>
<path d="M0 0 C2.8125 1.4375 2.8125 1.4375 4.8125 4.4375 C4.48495695 8.28613079 3.51408847 11.03432306 1.8125 14.4375 C1.42959538 16.42860401 1.08645385 18.42850513 0.8125 20.4375 C-0.8375 20.4375 -2.4875 20.4375 -4.1875 20.4375 C-4.290625 19.2 -4.39375 17.9625 -4.5 16.6875 C-4.935448 13.04382481 -5.90226237 11.31888658 -8.1875 8.4375 C-8.6875 5.9375 -8.6875 5.9375 -8.1875 3.4375 C-5.3837076 0.22138519 -4.28438557 -0.75606804 0 0 Z " fill="#FD5A78" transform="translate(82.1875,169.5625)"/>
<path d="M0 0 C2.8125 1.4375 2.8125 1.4375 4.8125 4.4375 C4.48495695 8.28613079 3.51408847 11.03432306 1.8125 14.4375 C1.42959538 16.42860401 1.08645385 18.42850513 0.8125 20.4375 C-0.8375 20.4375 -2.4875 20.4375 -4.1875 20.4375 C-4.290625 19.2 -4.39375 17.9625 -4.5 16.6875 C-4.935448 13.04382481 -5.90226237 11.31888658 -8.1875 8.4375 C-8.6875 5.9375 -8.6875 5.9375 -8.1875 3.4375 C-5.3837076 0.22138519 -4.28438557 -0.75606804 0 0 Z " fill="#FFFFFF" transform="translate(50.1875,169.5625)"/>
<path d="M0 0 C2.3125 1.3125 2.3125 1.3125 4.3125 3.3125 C4.01153201 7.45080989 3.63351984 9.83097024 1.3125 13.3125 C0.91862212 15.63637947 0.57763915 17.97043749 0.3125 20.3125 C-1.3375 20.3125 -2.9875 20.3125 -4.6875 20.3125 C-4.790625 19.075 -4.89375 17.8375 -5 16.5625 C-5.3386393 13.68153879 -5.51424631 12.53906251 -7.3125 10.1875 C-8.6875 8.3125 -8.6875 8.3125 -8.6875 5.25 C-7.6875 2.3125 -7.6875 2.3125 -5.4375 0.3125 C-2.6875 -0.6875 -2.6875 -0.6875 0 0 Z " fill="#5D3019" transform="translate(49.6875,105.6875)"/>
<path d="M0 0 C2.8125 1.4375 2.8125 1.4375 4.8125 4.4375 C4.48495695 8.28613079 3.51408847 11.03432306 1.8125 14.4375 C1.42959538 16.42860401 1.08645385 18.42850513 0.8125 20.4375 C-0.8375 20.4375 -2.4875 20.4375 -4.1875 20.4375 C-4.290625 19.2 -4.39375 17.9625 -4.5 16.6875 C-4.935448 13.04382481 -5.90226237 11.31888658 -8.1875 8.4375 C-8.6875 5.9375 -8.6875 5.9375 -8.1875 3.4375 C-5.3837076 0.22138519 -4.28438557 -0.75606804 0 0 Z " fill="#572B14" transform="translate(50.1875,41.5625)"/>
<path d="M0 0 C0.99 0.33 1.98 0.66 3 1 C3 2.65 3 4.3 3 6 C4.65 6.33 6.3 6.66 8 7 C7.3125 9.4375 7.3125 9.4375 6 12 C3.20030529 13.10514265 1.68249586 13.2144987 -1.1875 12.3125 C-3.39203122 10.71611533 -4.16328358 9.58621439 -5 7 C-4.82493154 4.11137045 -4.21914748 3.21184256 -2.125 1.1875 C-1.42375 0.795625 -0.7225 0.40375 0 0 Z " fill="#AA4F3C" transform="translate(78,113)"/>
<path d="M0 0 C4.62892224 3.32332879 4.62892224 3.32332879 6.0625 5.9375 C6 8 6 8 4.4375 10.75 C2 13 2 13 -1.0625 13.5625 C-4 13 -4 13 -5.9375 11.1875 C-7 9 -7 9 -6 6 C-4.68 6 -3.36 6 -2 6 C-2 4.35 -2 2.7 -2 1 C-1.34 0.67 -0.68 0.34 0 0 Z " fill="#5C2A21" transform="translate(81,49)"/>
<path d="M0 0 C1.7074998 1.28062485 3.37373596 2.61767557 5 4 C5 10 5 10 3 13 C-0.4375 13.5 -0.4375 13.5 -4 13 C-5.95578117 10.60259082 -7 9.12413392 -7 6 C-5.35 6 -3.7 6 -2 6 C-2 4.35 -2 2.7 -2 1 C-1.34 0.67 -0.68 0.34 0 0 Z " fill="#944C32" transform="translate(17,49)"/>
<path d="M0 0 C2.4375 1.25 2.4375 1.25 4.4375 4.25 C4.1875 7.375 4.1875 7.375 3.4375 10.25 C2.4475 10.745 2.4475 10.745 1.4375 11.25 C0.7775 9.93 0.1175 8.61 -0.5625 7.25 C-2.50324861 7.52617533 -2.50324861 7.52617533 -4.5625 8.25 C-5.5525 9.735 -5.5525 9.735 -6.5625 11.25 C-8.71752531 8.01746204 -9.03106135 6.99849077 -8.5625 3.25 C-6.20230702 0.10307603 -3.9205654 -1.14748256 0 0 Z " fill="#5C2E16" transform="translate(50.5625,9.75)"/>
<path d="M0 0 C0.99 0.33 1.98 0.66 3 1 C3.33 2.65 3.66 4.3 4 6 C5.32 6 6.64 6 8 6 C7.1875 8.9375 7.1875 8.9375 6 12 C2.97923697 13.00692101 1.1408885 13.39261106 -2 13 C-3.875 11.1875 -3.875 11.1875 -5 9 C-4.67 8.01 -4.34 7.02 -4 6 C-3.34 6 -2.68 6 -2 6 C-1.855625 5.195625 -1.71125 4.39125 -1.5625 3.5625 C-1 1 -1 1 0 0 Z " fill="#7B3632" transform="translate(14,113)"/>
<path d="M0 0 C2.4375 1.25 2.4375 1.25 4.4375 4.25 C4.4375 5.57 4.4375 6.89 4.4375 8.25 C3.4475 8.58 2.4575 8.91 1.4375 9.25 C0.4475 8.59 -0.5425 7.93 -1.5625 7.25 C-4.18165122 7.40701426 -4.18165122 7.40701426 -6.5625 8.25 C-6.8925 8.91 -7.2225 9.57 -7.5625 10.25 C-8.25 6.9375 -8.25 6.9375 -8.5625 3.25 C-6.39102585 -0.00721123 -3.83470169 -1.12235171 0 0 Z " fill="#4F2612" transform="translate(82.5625,10.75)"/>
<path d="M0 0 C2.4375 1.25 2.4375 1.25 4.4375 4.25 C4.4375 5.57 4.4375 6.89 4.4375 8.25 C3.4475 8.58 2.4575 8.91 1.4375 9.25 C0.4475 8.59 -0.5425 7.93 -1.5625 7.25 C-4.18165122 7.40701426 -4.18165122 7.40701426 -6.5625 8.25 C-6.8925 8.91 -7.2225 9.57 -7.5625 10.25 C-8.25 6.9375 -8.25 6.9375 -8.5625 3.25 C-6.39102585 -0.00721123 -3.83470169 -1.12235171 0 0 Z " fill="#4F2612" transform="translate(18.5625,10.75)"/>
<path d="M0 0 C2.4375 1.25 2.4375 1.25 4.4375 4.25 C4.3125 7.3125 4.3125 7.3125 3.4375 10.25 C1.625 11.6875 1.625 11.6875 -0.5625 12.25 C-2.8125 11.875 -2.8125 11.875 -4.5625 11.25 C-2.5625 9.25 -2.5625 9.25 0.4375 8.25 C0.7675 7.26 1.0975 6.27 1.4375 5.25 C0.48875 5.105625 -0.46 4.96125 -1.4375 4.8125 C-4.5625 4.25 -4.5625 4.25 -6.5625 3.25 C-6.35625 4.03375 -6.15 4.8175 -5.9375 5.625 C-5.751875 6.924375 -5.751875 6.924375 -5.5625 8.25 C-6.2225 8.91 -6.8825 9.57 -7.5625 10.25 C-8.25 6.9375 -8.25 6.9375 -8.5625 3.25 C-6.39102585 -0.00721123 -3.83470169 -1.12235171 0 0 Z " fill="#64321B" transform="translate(18.5625,201.75)"/>
<path d="M0 0 C2.4375 1.25 2.4375 1.25 4.4375 4.25 C3.99305556 9.69444444 3.99305556 9.69444444 1.4375 12.25 C-1.6875 11.875 -1.6875 11.875 -4.5625 11.25 C-2.5625 9.25 -2.5625 9.25 0.4375 8.25 C0.7675 7.26 1.0975 6.27 1.4375 5.25 C0.48875 5.105625 -0.46 4.96125 -1.4375 4.8125 C-4.5625 4.25 -4.5625 4.25 -6.5625 3.25 C-6.35625 4.03375 -6.15 4.8175 -5.9375 5.625 C-5.751875 6.924375 -5.751875 6.924375 -5.5625 8.25 C-6.2225 8.91 -6.8825 9.57 -7.5625 10.25 C-8.25 6.9375 -8.25 6.9375 -8.5625 3.25 C-6.39102585 -0.00721123 -3.83470169 -1.12235171 0 0 Z " fill="#64321B" transform="translate(18.5625,74.75)"/>
<path d="M0 0 C2.4375 1.25 2.4375 1.25 4.4375 4.25 C4.3125 7.3125 4.3125 7.3125 3.4375 10.25 C1.625 11.6875 1.625 11.6875 -0.5625 12.25 C-2.8125 11.875 -2.8125 11.875 -4.5625 11.25 C-2.5625 9.25 -2.5625 9.25 0.4375 8.25 C0.7675 7.26 1.0975 6.27 1.4375 5.25 C0.48875 5.105625 -0.46 4.96125 -1.4375 4.8125 C-4.5625 4.25 -4.5625 4.25 -6.5625 3.25 C-6.35625 4.03375 -6.15 4.8175 -5.9375 5.625 C-5.751875 6.924375 -5.751875 6.924375 -5.5625 8.25 C-6.2225 8.91 -6.8825 9.57 -7.5625 10.25 C-8.25 6.9375 -8.25 6.9375 -8.5625 3.25 C-6.39102585 -0.00721123 -3.83470169 -1.12235171 0 0 Z " fill="#64321B" transform="translate(50.5625,73.75)"/>
<path d="M0 0 C0.78375 0.185625 1.5675 0.37125 2.375 0.5625 C4.97089775 1.25962266 4.97089775 1.25962266 7 0 C7.33 0.99 7.66 1.98 8 3 C8.66 3.33 9.32 3.66 10 4 C9.505 4.8353125 9.505 4.8353125 9 5.6875 C7.8690399 8.30284522 7.84337026 10.1806646 8 13 C5.03 13 2.06 13 -1 13 C-0.125 8.125 -0.125 8.125 1 7 C1.33 6.34 1.66 5.68 2 5 C1.01 4.34 0.02 3.68 -1 3 C-0.67 2.01 -0.34 1.02 0 0 Z " fill="#622C14" transform="translate(13,145)"/>
<path d="M0 0 C1.65 1.32 3.3 2.64 5 4 C4.690625 4.53625 4.38125 5.0725 4.0625 5.625 C2.82172561 8.3984957 2.4090325 11.00042837 2 14 C0.35 14 -1.3 14 -3 14 C-3.33 11.69 -3.66 9.38 -4 7 C-3.34 7 -2.68 7 -2 7 C-2 5.02 -2 3.04 -2 1 C-1.34 0.67 -0.68 0.34 0 0 Z " fill="#D19261" transform="translate(17,176)"/>
<path d="M0 0 C1.65 1.32 3.3 2.64 5 4 C4.690625 4.53625 4.38125 5.0725 4.0625 5.625 C2.82172561 8.3984957 2.4090325 11.00042837 2 14 C0.35 14 -1.3 14 -3 14 C-3.33 11.69 -3.66 9.38 -4 7 C-3.34 7 -2.68 7 -2 7 C-2 5.02 -2 3.04 -2 1 C-1.34 0.67 -0.68 0.34 0 0 Z " fill="#D19261" transform="translate(49,48)"/>
<path d="M0 0 C0.99 0.33 1.98 0.66 3 1 C3 2.98 3 4.96 3 7 C3.66 7 4.32 7 5 7 C4.67 9.31 4.34 11.62 4 14 C2.35 14 0.7 14 -1 14 C-2.31905299 5.35287486 -2.31905299 5.35287486 -1 1 C-0.67 0.67 -0.34 0.34 0 0 Z " fill="#6C262A" transform="translate(14,240)"/>
<path d="M0 0 C0.99 0.33 1.98 0.66 3 1 C3 2.98 3 4.96 3 7 C3.66 7 4.32 7 5 7 C4.67 9.31 4.34 11.62 4 14 C2.35 14 0.7 14 -1 14 C-2.31905299 5.35287486 -2.31905299 5.35287486 -1 1 C-0.67 0.67 -0.34 0.34 0 0 Z " fill="#6C262A" transform="translate(46,112)"/>
<path d="M0 0 C1.65 1.32 3.3 2.64 5 4 C3.98545548 6.5363613 3.3146444 7.79351461 1 9.3125 C0.01 9.6528125 0.01 9.6528125 -1 10 C-1.66 9.67 -2.32 9.34 -3 9 C-2.4140625 2.84765625 -2.4140625 2.84765625 -2 1 C-1.34 0.67 -0.68 0.34 0 0 Z " fill="#D0825F" transform="translate(81,49)"/>
<path d="M0 0 C0.33 0 0.66 0 1 0 C1.66 2.64 2.32 5.28 3 8 C1 9 1 9 -2.5625 8.1875 C-6 7 -6 7 -7 5 C-5.35 5 -3.7 5 -2 5 C-1.855625 4.360625 -1.71125 3.72125 -1.5625 3.0625 C-1 1 -1 1 0 0 Z " fill="#9A2D2B" transform="translate(84,82)"/>
<path d="M0 0 C0.78375 0.185625 1.5675 0.37125 2.375 0.5625 C4.97089775 1.25962266 4.97089775 1.25962266 7 0 C7.33 0.99 7.66 1.98 8 3 C6.5625 5.6875 6.5625 5.6875 5 8 C3.68 7.67 2.36 7.34 1 7 C1.33 6.34 1.66 5.68 2 5 C1.01 4.34 0.02 3.68 -1 3 C-0.67 2.01 -0.34 1.02 0 0 Z " fill="#ED9D71" transform="translate(13,145)"/>
<path d="M0 0 C1.5625 1.0625 1.5625 1.0625 3 3 C2.6875 6.6875 2.6875 6.6875 2 10 C0 9 0 9 -1.5 7.4375 C-2.89439669 5.76936488 -2.89439669 5.76936488 -5 6 C-4.67 5.01 -4.34 4.02 -4 3 C-2.68 3 -1.36 3 0 3 C0 2.01 0 1.02 0 0 Z " fill="#38190B" transform="translate(20,139)"/>
<path d="M0 0 C1.5625 1.125 1.5625 1.125 3 3 C2.9375 6.0625 2.9375 6.0625 2 9 C0.1875 10.4375 0.1875 10.4375 -2 11 C-4.25 10.625 -4.25 10.625 -6 10 C-4 8 -4 8 -1 7 C-0.67 4.69 -0.34 2.38 0 0 Z " fill="#3B1809" transform="translate(20,203)"/>
<path d="M0 0 C1.5625 1.125 1.5625 1.125 3 3 C2.77669287 6.64734979 2.61627165 8.38372835 0 11 C-3.125 10.625 -3.125 10.625 -6 10 C-4 8 -4 8 -1 7 C-0.67 4.69 -0.34 2.38 0 0 Z " fill="#3E180A" transform="translate(20,76)"/>
<path d="M0 0 C1.5625 1.125 1.5625 1.125 3 3 C2.9375 6.0625 2.9375 6.0625 2 9 C0.1875 10.4375 0.1875 10.4375 -2 11 C-4.25 10.625 -4.25 10.625 -6 10 C-4 8 -4 8 -1 7 C-0.67 4.69 -0.34 2.38 0 0 Z " fill="#3B1809" transform="translate(52,75)"/>
<path d="M0 0 C1.5625 1.125 1.5625 1.125 3 3 C2.8125 6.125 2.8125 6.125 2 9 C1.01 9.495 1.01 9.495 0 10 C-0.66 8.68 -1.32 7.36 -2 6 C-2.99 6 -3.98 6 -5 6 C-4.67 5.01 -4.34 4.02 -4 3 C-2.68 3 -1.36 3 0 3 C0 2.01 0 1.02 0 0 Z " fill="#44200E" transform="translate(52,11)"/>
<path d="M0 0 C2.97 0 5.94 0 9 0 C8.67 0.99 8.34 1.98 8 3 C6.68 3 5.36 3 4 3 C3.67 3.66 3.34 4.32 3 5 C1.68 5 0.36 5 -1 5 C-1 4.34 -1 3.68 -1 3 C-1.66 2.67 -2.32 2.34 -3 2 C-2.01 2 -1.02 2 0 2 C0 1.34 0 0.68 0 0 Z " fill="#302B61" transform="translate(13,25)"/>
<path d="M0 0 C0.99 0.33 1.98 0.66 3 1 C4.125 7.75 4.125 7.75 3 10 C2.34 10 1.68 10 1 10 C1 8.68 1 7.36 1 6 C0.01 6 -0.98 6 -2 6 C-1.125 1.125 -1.125 1.125 0 0 Z " fill="#D77942" transform="translate(14,240)"/>
<path d="M0 0 C0.66 0.33 1.32 0.66 2 1 C1.67 1.66 1.34 2.32 1 3 C2.32 3.33 3.64 3.66 5 4 C4 6 4 6 2 7 C1.01 8.485 1.01 8.485 0 10 C-2 7 -2 7 -1.6875 3.875 C-1 1 -1 1 0 0 Z " fill="#43200E" transform="translate(11,235)"/>
<path d="M0 0 C0.66 0 1.32 0 2 0 C2.98120464 3.05263664 2.98120464 4.94736336 2 8 C0.35 8 -1.3 8 -3 8 C-3.33 5.69 -3.66 3.38 -4 1 C-3.01 1.495 -3.01 1.495 -2 2 C-2 2.66 -2 3.32 -2 4 C-1.34 4 -0.68 4 0 4 C0 2.68 0 1.36 0 0 Z " fill="#672025" transform="translate(17,182)"/>
<path d="M0 0 C0.99 0.33 1.98 0.66 3 1 C4.125 7.75 4.125 7.75 3 10 C2.34 10 1.68 10 1 10 C1 8.68 1 7.36 1 6 C0.01 6 -0.98 6 -2 6 C-1.125 1.125 -1.125 1.125 0 0 Z " fill="#D77942" transform="translate(46,112)"/>
<path d="M0 0 C0.66 0.33 1.32 0.66 2 1 C1.67 1.66 1.34 2.32 1 3 C2.32 3.33 3.64 3.66 5 4 C4 6 4 6 2 7 C1.01 8.485 1.01 8.485 0 10 C-2 7 -2 7 -1.6875 3.875 C-1 1 -1 1 0 0 Z " fill="#43200E" transform="translate(11,108)"/>
<path d="M0 0 C0.66 0.33 1.32 0.66 2 1 C1.67 1.66 1.34 2.32 1 3 C2.32 3.33 3.64 3.66 5 4 C4 6 4 6 2 7 C1.01 8.485 1.01 8.485 0 10 C-2 7 -2 7 -1.6875 3.875 C-1 1 -1 1 0 0 Z " fill="#43200E" transform="translate(43,107)"/>
<path d="M0 0 C0.66 0 1.32 0 2 0 C2.98120464 3.05263664 2.98120464 4.94736336 2 8 C0.35 8 -1.3 8 -3 8 C-3.33 5.69 -3.66 3.38 -4 1 C-3.01 1.495 -3.01 1.495 -2 2 C-2 2.66 -2 3.32 -2 4 C-1.34 4 -0.68 4 0 4 C0 2.68 0 1.36 0 0 Z " fill="#672025" transform="translate(49,54)"/>
<path d="M0 0 C2.97 0 5.94 0 9 0 C9 1.32 9 2.64 9 4 C6.03 4 3.06 4 0 4 C0 2.68 0 1.36 0 0 Z " fill="#34243F" transform="translate(12,218)"/>
<path d="M0 0 C1.485 0.99 1.485 0.99 3 2 C6.12521833 2.16699232 6.12521833 2.16699232 9 2 C8.34 3.32 7.68 4.64 7 6 C5.02 6 3.04 6 1 6 C-0.0625 4.125 -0.0625 4.125 -1 2 C-0.67 1.34 -0.34 0.68 0 0 Z " fill="#3A141A" transform="translate(76,120)"/>
<path d="M0 0 C0.66 0.33 1.32 0.66 2 1 C1.67 1.66 1.34 2.32 1 3 C2.32 3.33 3.64 3.66 5 4 C3.73293765 6.53412471 2.59334288 6.97838008 0 8 C-0.66 7.67 -1.32 7.34 -2 7 C-1.125 1.125 -1.125 1.125 0 0 Z " fill="#3D1A0B" transform="translate(75,108)"/>
<path d="M0 0 C2.97 0 5.94 0 9 0 C9 1.32 9 2.64 9 4 C6.03 4 3.06 4 0 4 C0 2.68 0 1.36 0 0 Z " fill="#34243F" transform="translate(44,90)"/>
<path d="M0 0 C2.97 0 5.94 0 9 0 C9 1.32 9 2.64 9 4 C6.03 4 3.06 4 0 4 C0 2.68 0 1.36 0 0 Z " fill="#34243F" transform="translate(44,26)"/>
<path d="M0 0 C4.08378283 0.74250597 8.01939223 1.82923301 12 3 C11.01 3.495 11.01 3.495 10 4 C10 4.66 10 5.32 10 6 C8.68 6 7.36 6 6 6 C5.67 5.34 5.34 4.68 5 4 C3.68 4 2.36 4 1 4 C0.67 2.68 0.34 1.36 0 0 Z " fill="#39293D" transform="translate(75,24)"/>
<path d="M0 0 C0.99 0.66 1.98 1.32 3 2 C3 2.99 3 3.98 3 5 C-1.75 6.125 -1.75 6.125 -4 5 C-3.6875 3.0625 -3.6875 3.0625 -3 1 C-2.01 0.67 -1.02 0.34 0 0 Z " fill="#CBA77F" transform="translate(81,17)"/>
<path d="M0 0 C0.99 0.66 1.98 1.32 3 2 C3 2.99 3 3.98 3 5 C-1.75 6.125 -1.75 6.125 -4 5 C-3.6875 3.0625 -3.6875 3.0625 -3 1 C-2.01 0.67 -1.02 0.34 0 0 Z " fill="#CBA77F" transform="translate(17,17)"/>
<path d="M0 0 C0.99 0.66 1.98 1.32 3 2 C3 2.99 3 3.98 3 5 C-1.75 6.125 -1.75 6.125 -4 5 C-3.6875 3.0625 -3.6875 3.0625 -3 1 C-2.01 0.67 -1.02 0.34 0 0 Z " fill="#CBA77F" transform="translate(49,16)"/>
<path d="M0 0 C0.66 0.33 1.32 0.66 2 1 C1.67 3.97 1.34 6.94 1 10 C0.34 10 -0.32 10 -1 10 C-1.33 10.66 -1.66 11.32 -2 12 C-2.33 9.69 -2.66 7.38 -3 5 C-2.34 5 -1.68 5 -1 5 C-0.67 3.35 -0.34 1.7 0 0 Z " fill="#381508" transform="translate(20,109)"/>
<path d="M0 0 C2.64 0.66 5.28 1.32 8 2 C8.33 3.32 8.66 4.64 9 6 C7.68 6 6.36 6 5 6 C4.67 5.34 4.34 4.68 4 4 C2.68 4 1.36 4 0 4 C0 2.68 0 1.36 0 0 Z " fill="#382035" transform="translate(76,88)"/>
<path d="M0 0 C1.37478516 0.01740234 1.37478516 0.01740234 2.77734375 0.03515625 C3.69644531 0.04417969 4.61554687 0.05320313 5.5625 0.0625 C6.27277344 0.07410156 6.98304687 0.08570313 7.71484375 0.09765625 C7.05484375 1.41765625 6.39484375 2.73765625 5.71484375 4.09765625 C2.33984375 4.28515625 2.33984375 4.28515625 -1.28515625 4.09765625 C-1.94515625 3.10765625 -2.60515625 2.11765625 -3.28515625 1.09765625 C-2.28515625 0.09765625 -2.28515625 0.09765625 0 0 Z " fill="#38212D" transform="translate(14.28515625,57.90234375)"/>
<path d="M0 0 C0.99 0.33 1.98 0.66 3 1 C3.33 2.98 3.66 4.96 4 7 C3.01 7.33 2.02 7.66 1 8 C0.01 6.35 -0.98 4.7 -2 3 C-1.01 3 -0.02 3 1 3 C0.67 2.01 0.34 1.02 0 0 Z " fill="#3D1B0C" transform="translate(19,171)"/>
<path d="M0 0 C0.66 0.66 1.32 1.32 2 2 C1.6730244 4.61580479 1.17960932 6.64078137 0 9 C-0.99 8.67 -1.98 8.34 -3 8 C-2.74438677 5.6568787 -2.40729228 3.32156597 -2 1 C-1.34 0.67 -0.68 0.34 0 0 Z " fill="#EB9268" transform="translate(17,49)"/>
<path d="M0 0 C0.99 0.33 1.98 0.66 3 1 C3.33 2.98 3.66 4.96 4 7 C3.01 7.33 2.02 7.66 1 8 C0.01 6.35 -0.98 4.7 -2 3 C-1.01 3 -0.02 3 1 3 C0.67 2.01 0.34 1.02 0 0 Z " fill="#3D1B0C" transform="translate(83,44)"/>
<path d="M0 0 C0.99 0.33 1.98 0.66 3 1 C3.33 2.98 3.66 4.96 4 7 C3.01 7.33 2.02 7.66 1 8 C0.01 6.35 -0.98 4.7 -2 3 C-1.01 3 -0.02 3 1 3 C0.67 2.01 0.34 1.02 0 0 Z " fill="#3D1B0C" transform="translate(19,44)"/>
<path d="M0 0 C0.99 0.33 1.98 0.66 3 1 C3.33 2.98 3.66 4.96 4 7 C3.01 7.33 2.02 7.66 1 8 C0.01 6.35 -0.98 4.7 -2 3 C-1.01 3 -0.02 3 1 3 C0.67 2.01 0.34 1.02 0 0 Z " fill="#3D1B0C" transform="translate(51,43)"/>
<path d="M0 0 C0.66 0.33 1.32 0.66 2 1 C1.50769231 7.52307692 1.50769231 7.52307692 -1.0625 9.9375 C-1.701875 10.288125 -2.34125 10.63875 -3 11 C-3 9.02 -3 7.04 -3 5 C-2.34 5 -1.68 5 -1 5 C-0.67 3.35 -0.34 1.7 0 0 Z " fill="#351205" transform="translate(20,236)"/>
<path d="M0 0 C0.66 0.33 1.32 0.66 2 1 C1.50769231 7.52307692 1.50769231 7.52307692 -1.0625 9.9375 C-1.701875 10.288125 -2.34125 10.63875 -3 11 C-3 9.02 -3 7.04 -3 5 C-2.34 5 -1.68 5 -1 5 C-0.67 3.35 -0.34 1.7 0 0 Z " fill="#351205" transform="translate(52,108)"/>
<path d="M0 0 C0.66 0.33 1.32 0.66 2 1 C1.75 4.375 1.75 4.375 1 8 C-1.0625 9.4375 -1.0625 9.4375 -3 10 C-3 8.35 -3 6.7 -3 5 C-2.34 5 -1.68 5 -1 5 C-0.67 3.35 -0.34 1.7 0 0 Z " fill="#341205" transform="translate(84,109)"/>
<path d="M0 0 C0.33 0 0.66 0 1 0 C1 2.31 1 4.62 1 7 C1.66 7 2.32 7 3 7 C3.33 6.34 3.66 5.68 4 5 C4 6.65 4 8.3 4 10 C2.68 9.67 1.36 9.34 0 9 C-0.87890625 2.84765625 -0.87890625 2.84765625 -1 1 C-0.67 0.67 -0.34 0.34 0 0 Z " fill="#361507" transform="translate(11,45)"/>
<path d="M0 0 C0.99 0.33 1.98 0.66 3 1 C2.67 1.66 2.34 2.32 2 3 C1.01 3 0.02 3 -1 3 C-0.79375 3.78375 -0.5875 4.5675 -0.375 5.375 C-0.189375 6.674375 -0.189375 6.674375 0 8 C-0.66 8.66 -1.32 9.32 -2 10 C-2.6875 6.6875 -2.6875 6.6875 -3 3 C-1.5625 1.0625 -1.5625 1.0625 0 0 Z " fill="#3D1A0C" transform="translate(13,202)"/>
<path d="M0 0 C0.33 0 0.66 0 1 0 C1 2.31 1 4.62 1 7 C1.66 7 2.32 7 3 7 C3.33 6.34 3.66 5.68 4 5 C4 6.98 4 8.96 4 11 C-0.90322581 6.70967742 -0.90322581 6.70967742 -1.375 3.25 C-1 1 -1 1 0 0 Z " fill="#341205" transform="translate(11,172)"/>
<path d="M0 0 C2.64 0.33 5.28 0.66 8 1 C7.01 1.66 6.02 2.32 5 3 C6.32 3.66 7.64 4.32 9 5 C5.625 4.75 5.625 4.75 2 4 C0.5625 1.9375 0.5625 1.9375 0 0 Z " fill="#8F3322" transform="translate(10,149)"/>
<path d="M0 0 C0.99 0.33 1.98 0.66 3 1 C3 2.65 3 4.3 3 6 C1.35 5.67 -0.3 5.34 -2 5 C-1.125 1.125 -1.125 1.125 0 0 Z " fill="#D9AA6F" transform="translate(78,113)"/>
<path d="M0 0 C0.99 0.33 1.98 0.66 3 1 C3 2.65 3 4.3 3 6 C1.35 5.67 -0.3 5.34 -2 5 C-1.125 1.125 -1.125 1.125 0 0 Z " fill="#D9AA6F" transform="translate(14,113)"/>
<path d="M0 0 C1.32 0.33 2.64 0.66 4 1 C4 2.32 4 3.64 4 5 C2.125 5.625 2.125 5.625 0 6 C-0.66 5.34 -1.32 4.68 -2 4 C-2 3.34 -2 2.68 -2 2 C-1.34 2 -0.68 2 0 2 C0 1.34 0 0.68 0 0 Z " fill="#64321B" transform="translate(80,74)"/>
<path d="M0 0 C0.99 0.33 1.98 0.66 3 1 C2.67 1.66 2.34 2.32 2 3 C1.01 3 0.02 3 -1 3 C-0.79375 3.78375 -0.5875 4.5675 -0.375 5.375 C-0.189375 6.674375 -0.189375 6.674375 0 8 C-0.66 8.66 -1.32 9.32 -2 10 C-2.6875 6.6875 -2.6875 6.6875 -3 3 C-1.5625 1.0625 -1.5625 1.0625 0 0 Z " fill="#3D1A0C" transform="translate(77,75)"/>
<path d="M0 0 C0.99 0.33 1.98 0.66 3 1 C2.67 1.66 2.34 2.32 2 3 C1.01 3 0.02 3 -1 3 C-0.79375 3.78375 -0.5875 4.5675 -0.375 5.375 C-0.189375 6.674375 -0.189375 6.674375 0 8 C-0.66 8.66 -1.32 9.32 -2 10 C-2.6875 6.6875 -2.6875 6.6875 -3 3 C-1.5625 1.0625 -1.5625 1.0625 0 0 Z " fill="#3D1A0C" transform="translate(13,75)"/>
<path d="M0 0 C0.99 0.33 1.98 0.66 3 1 C2.67 1.66 2.34 2.32 2 3 C1.01 3 0.02 3 -1 3 C-0.79375 3.78375 -0.5875 4.5675 -0.375 5.375 C-0.189375 6.674375 -0.189375 6.674375 0 8 C-0.66 8.66 -1.32 9.32 -2 10 C-2.6875 6.6875 -2.6875 6.6875 -3 3 C-1.5625 1.0625 -1.5625 1.0625 0 0 Z " fill="#3D1A0C" transform="translate(45,74)"/>
<path d="M0 0 C0.33 0 0.66 0 1 0 C1 2.31 1 4.62 1 7 C1.66 7 2.32 7 3 7 C3.33 6.34 3.66 5.68 4 5 C4 6.98 4 8.96 4 11 C-0.90322581 6.70967742 -0.90322581 6.70967742 -1.375 3.25 C-1 1 -1 1 0 0 Z " fill="#341205" transform="translate(43,44)"/>
<path d="M0 0 C0.99 0.33 1.98 0.66 3 1 C2.34 1 1.68 1 1 1 C1 1.66 1 2.32 1 3 C0.34 3 -0.32 3 -1 3 C-0.67 5.64 -0.34 8.28 0 11 C-2.24197388 9.22510401 -2.94326323 8.37824511 -3.375 5.5 C-2.94326323 2.62175489 -2.24197388 1.77489599 0 0 Z " fill="#4A2711" transform="translate(45,10)"/>
<path d="M0 0 C-0.66 1.65 -1.32 3.3 -2 5 C-4.02045442 4.39816251 -6.02111039 3.72693904 -8 3 C-8.33 2.34 -8.66 1.68 -9 1 C-2.25 0 -2.25 0 0 0 Z " fill="#AB3A4A" transform="translate(22,86)"/>
<path d="M0 0 C0.33 0 0.66 0 1 0 C1 2.31 1 4.62 1 7 C1.66 7 2.32 7 3 7 C3.33 6.34 3.66 5.68 4 5 C4 6.65 4 8.3 4 10 C2.0625 9.4375 2.0625 9.4375 0 8 C-0.8125 4.4375 -0.8125 4.4375 -1 1 C-0.67 0.67 -0.34 0.34 0 0 Z " fill="#331205" transform="translate(75,45)"/>
<path d="M0 0 C0.66 0.33 1.32 0.66 2 1 C2 1.66 2 2.32 2 3 C-0.97 3 -3.94 3 -7 3 C-7 2.34 -7 1.68 -7 1 C-4.50564175 -0.24717912 -2.76297351 -0.13814868 0 0 Z " fill="#E14B49" transform="translate(19,215)"/>
<path d="M0 0 C0.66 0.33 1.32 0.66 2 1 C2 1.66 2 2.32 2 3 C-0.97 3 -3.94 3 -7 3 C-7 2.34 -7 1.68 -7 1 C-4.50564175 -0.24717912 -2.76297351 -0.13814868 0 0 Z " fill="#E14B49" transform="translate(51,87)"/>
<path d="M0 0 C0.33 0.99 0.66 1.98 1 3 C1.66 3.33 2.32 3.66 3 4 C2.34 5.32 1.68 6.64 1 8 C-0.32 8 -1.64 8 -3 8 C-2.5359375 7.13375 -2.5359375 7.13375 -2.0625 6.25 C-1.07416636 4.15705816 -0.4831387 2.25464725 0 0 Z " fill="#99512A" transform="translate(12,19)"/>
<path d="M0 0 C2.97 0.495 2.97 0.495 6 1 C6 1.66 6 2.32 6 3 C5.34 3 4.68 3 4 3 C3.67 3.66 3.34 4.32 3 5 C1.68 5 0.36 5 -1 5 C-0.67 3.35 -0.34 1.7 0 0 Z " fill="#362C5E" transform="translate(13,153)"/>
<path d="M0 0 C0 0.99 0 1.98 0 3 C-2.31 3 -4.62 3 -7 3 C-7 2.34 -7 1.68 -7 1 C-4.53721199 -0.231394 -2.7204945 -0.07159196 0 0 Z " fill="#D84F4A" transform="translate(51,23)"/>
<path d="M0 0 C-0.33 0.99 -0.66 1.98 -1 3 C-2.65 2.67 -4.3 2.34 -6 2 C-6 1.34 -6 0.68 -6 0 C-3.50907189 -1.24546405 -2.58919267 -0.7767578 0 0 Z " fill="#5C301C" transform="translate(19,170)"/>
<path d="M0 0 C-0.33 0.99 -0.66 1.98 -1 3 C-2.65 2.67 -4.3 2.34 -6 2 C-6 1.34 -6 0.68 -6 0 C-3.50907189 -1.24546405 -2.58919267 -0.7767578 0 0 Z " fill="#5C301C" transform="translate(83,43)"/>
<path d="M0 0 C-0.33 0.99 -0.66 1.98 -1 3 C-2.65 2.67 -4.3 2.34 -6 2 C-6 1.34 -6 0.68 -6 0 C-3.50907189 -1.24546405 -2.58919267 -0.7767578 0 0 Z " fill="#5C301C" transform="translate(19,43)"/>
<path d="M0 0 C-0.33 0.99 -0.66 1.98 -1 3 C-2.65 2.67 -4.3 2.34 -6 2 C-6 1.34 -6 0.68 -6 0 C-3.50907189 -1.24546405 -2.58919267 -0.7767578 0 0 Z " fill="#5C301C" transform="translate(51,42)"/>
<path d="M0 0 C0.99 0.33 1.98 0.66 3 1 C2.67 2.32 2.34 3.64 2 5 C0.68 5 -0.64 5 -2 5 C-1.125 1.125 -1.125 1.125 0 0 Z " fill="#D7B084" transform="translate(14,240)"/>
<path d="M0 0 C1.98 0 3.96 0 6 0 C5.34 1.65 4.68 3.3 4 5 C2.68 4.34 1.36 3.68 0 3 C0 2.01 0 1.02 0 0 Z " fill="#401E1C" transform="translate(15,142)"/>
<path d="M0 0 C0.99 0.33 1.98 0.66 3 1 C2.67 2.32 2.34 3.64 2 5 C0.68 5 -0.64 5 -2 5 C-1.125 1.125 -1.125 1.125 0 0 Z " fill="#D7B084" transform="translate(46,112)"/>
<path d="M0 0 C1.5625 1.125 1.5625 1.125 3 3 C2.6875 6.1875 2.6875 6.1875 2 9 C-0.29013653 5.5647952 -0.17842973 4.014669 0 0 Z " fill="#371609" transform="translate(84,76)"/>
<path d="M0 0 C1.32 0.33 2.64 0.66 4 1 C3.01 1 2.02 1 1 1 C1 1.66 1 2.32 1 3 C1.66 3 2.32 3 3 3 C3 3.66 3 4.32 3 5 C1.68 5 0.36 5 -1 5 C-1 4.34 -1 3.68 -1 3 C-1.66 2.67 -2.32 2.34 -3 2 C-2.01 2 -1.02 2 0 2 C0 1.34 0 0.68 0 0 Z " fill="#531F12" transform="translate(13,25)"/>
<path d="M0 0 C1.5 1.25 1.5 1.25 3 3 C3 4.32 3 5.64 3 7 C2.01 7.33 1.02 7.66 0 8 C0 5.33333333 0 2.66666667 0 0 Z " fill="#361608" transform="translate(84,12)"/>
<path d="M0 0 C1.5 1.25 1.5 1.25 3 3 C3 4.32 3 5.64 3 7 C2.01 7.33 1.02 7.66 0 8 C0 5.33333333 0 2.66666667 0 0 Z " fill="#361608" transform="translate(20,12)"/>
</svg>
